<!--?xml version="1.0" standalone="no"?-->
              <svg id="sw-js-blob-svg" viewBox="0 0 100 100" xmlns="http://www.w3.org/2000/svg" version="1.1">
                    <defs> 
                        <linearGradient id="sw-gradient" x1="0" x2="1" y1="1" y2="0">
                            <stop id="stop1" stop-color="rgba(178.799, 11.167, 47.168, 1)" offset="0%"></stop>
                            <stop id="stop2" stop-color="rgba(203.843, 19.636, 59.198, 1)" offset="100%"></stop>
                        </linearGradient>
                    </defs>
                <path fill="url(#sw-gradient)" d="M22.2,-29C27.6,-21.9,30.1,-13.8,30.3,-6.3C30.4,1.1,28.2,8.1,25.1,15.7C22.1,23.2,18.3,31.5,11.8,35.1C5.2,38.7,-4,37.6,-11.6,34C-19.2,30.3,-25.2,24.1,-28.1,17.2C-31,10.2,-30.9,2.4,-28.9,-4.4C-26.8,-11.1,-22.8,-16.8,-17.7,-23.9C-12.6,-31,-6.3,-39.6,1,-40.9C8.4,-42.1,16.8,-36,22.2,-29Z" width="100%" height="100%" transform="translate(50 50)" stroke-width="0" style="transition: all 0.3s ease 0s;"></path>
              </svg>